<svg xmlns="http://www.w3.org/2000/svg" width="128" height="128" fill="none" viewBox="0 0 128 128">
  <path fill="#14191F" d="M0 0h128v128H0z"/>
  <path fill="#fff" d="M58.094 23.28c2.751-4.323 9.06-4.323 11.812 0L82.61 43.241a7 7 0 0 0 2.147 2.148l19.964 12.704c4.322 2.751 4.322 9.06 0 11.812L84.757 82.61a7 7 0 0 0-2.147 2.147l-12.704 19.964c-2.751 4.322-9.06 4.322-11.812 0L45.39 84.757a7 7 0 0 0-2.148-2.147L23.28 69.906c-4.322-2.751-4.322-9.06 0-11.812L43.242 45.39a7 7 0 0 0 2.148-2.148L58.094 23.28Z"/>
</svg>
